<svg width="35" height="34" viewBox="0 0 35 34" fill="none" xmlns="http://www.w3.org/2000/svg">
<path fill-rule="evenodd" clip-rule="evenodd" d="M21.5814 13.4584H23.8292C25.0874 13.4584 25.7094 14.9884 24.8188 15.8809L18.3299 22.3834C17.7786 22.9359 16.888 22.9359 16.3366 22.3834L9.8478 15.8809C8.95717 14.9884 9.59333 13.4584 10.8515 13.4584H13.0993V6.37504C13.0993 5.59587 13.7354 4.95837 14.513 4.95837H20.1677C20.9453 4.95837 21.5814 5.59587 21.5814 6.37504V13.4584ZM8.85821 29.0417C8.08068 29.0417 7.44452 28.4042 7.44452 27.6251C7.44452 26.8459 8.08068 26.2084 8.85821 26.2084H25.8225C26.6 26.2084 27.2362 26.8459 27.2362 27.6251C27.2362 28.4042 26.6 29.0417 25.8225 29.0417H8.85821Z" fill="white"/>
</svg>
