<svg width="38" height="36" viewBox="0 0 38 36" fill="none" xmlns="http://www.w3.org/2000/svg">
<path fill-rule="evenodd" clip-rule="evenodd" d="M22.0758 4.5C22.0758 3.67157 22.7646 3 23.6142 3H32.8448C33.6945 3 34.3832 3.67157 34.3832 4.5V13.5C34.3832 14.3284 33.6945 15 32.8448 15C31.9952 15 31.3064 14.3284 31.3064 13.5V6H23.6142C22.7646 6 22.0758 5.32843 22.0758 4.5Z" fill="white"/>
<path fill-rule="evenodd" clip-rule="evenodd" d="M5.15311 21C6.00276 21 6.69154 21.6716 6.69154 22.5V30H14.3837C15.2333 30 15.9221 30.6716 15.9221 31.5C15.9221 32.3284 15.2333 33 14.3837 33H5.15311C4.30346 33 3.61469 32.3284 3.61469 31.5V22.5C3.61469 21.6716 4.30346 21 5.15311 21Z" fill="white"/>
<path fill-rule="evenodd" clip-rule="evenodd" d="M33.9326 3.43934C34.5334 4.02513 34.5334 4.97487 33.9326 5.56066L23.1636 16.0607C22.5629 16.6464 21.5888 16.6464 20.988 16.0607C20.3872 15.4749 20.3872 14.5251 20.988 13.9393L31.757 3.43934C32.3578 2.85355 33.3318 2.85355 33.9326 3.43934Z" fill="white"/>
<path fill-rule="evenodd" clip-rule="evenodd" d="M17.0099 19.9393C17.6107 20.5251 17.6107 21.4749 17.0099 22.0607L6.24095 32.5607C5.64015 33.1464 4.66607 33.1464 4.06528 32.5607C3.46449 31.9749 3.46449 31.0251 4.06528 30.4393L14.8343 19.9393C15.4351 19.3536 16.4091 19.3536 17.0099 19.9393Z" fill="white"/>
</svg>
